<svg xmlns="http://www.w3.org/2000/svg" version="1.1" xmlns:xlink="http://www.w3.org/1999/xlink" xmlns:svgjs="http://svgjs.dev/svgjs" width="2000" height="575" viewBox="0 0 2000 575"><g transform="matrix(1,0,0,1,-1.2121212121212466,-0.5652259414655418)"><svg viewBox="0 0 396 114" data-background-color="#151619" preserveAspectRatio="xMidYMid meet" height="575" width="2000" xmlns="http://www.w3.org/2000/svg" xmlns:xlink="http://www.w3.org/1999/xlink"><g id="tight-bounds" transform="matrix(1,0,0,1,0.2400000000000091,0.11206218665577694)"><svg viewBox="0 0 395.52 113.77587562668843" height="113.77587562668843" width="395.52"><g><svg viewBox="0 0 596.3815502944533 171.5560100433691" height="113.77587562668843" width="395.52"><g transform="matrix(1,0,0,1,0,23.70998402191281)"><svg viewBox="0 0 395.52 124.13604199954348" height="124.13604199954348" width="395.52"><g id="textblocktransform"><svg viewBox="0 0 395.52 124.13604199954348" height="124.13604199954348" width="395.52" id="textblock"><g><svg viewBox="0 0 395.52 124.13604199954348" height="124.13604199954348" width="395.52"><g transform="matrix(1,0,0,1,0,0)"><svg width="395.52" viewBox="1.93 -33.02 108.50999999999999 34.370000000000005" height="124.13604199954348" data-palette-color="#ffffff"><g class="wordmark-text-0" data-fill-palette-color="primary" id="text-0"><path d="M22.78-5.05L31.6-5.35 31.6 1.35 17.75 0.8Q9.33 0.45 5.63-2.98 1.93-6.4 1.93-13.1L1.93-13.1 1.93-18.9Q1.93-25.48 5.44-29.06 8.95-32.65 15.88-32.65L15.88-32.65Q20.48-32.65 23.58-31.05 26.68-29.45 28.24-26.39 29.8-23.33 29.8-18.93L29.8-18.93 29.8-14.6Q29.8-12.5 29.31-10.89 28.83-9.28 27.91-8.14 27-7 25.7-6.31 24.4-5.63 22.78-5.35L22.78-5.35 22.78-5.05ZM16.57-5.75L16.57-5.75 17.4-5.73Q18.38-6 19.18-6.6 19.98-7.2 20.58-8.1 21.18-9 21.51-10.26 21.85-11.53 21.85-13.13L21.85-13.13 21.85-19.23Q21.85-22.6 20.38-24.4 18.9-26.2 15.88-26.2L15.88-26.2Q12.85-26.2 11.38-24.4 9.9-22.6 9.9-19.23L9.9-19.23 9.9-12.78Q9.9-9.4 11.7-7.63 13.5-5.85 16.57-5.75ZM41.97-33.02L41.97 0 34.32 0 34.32-33.02 41.97-33.02ZM59.3 0.63L59.3 0.63Q52.59 0.63 49.4-2.36 46.2-5.35 46.2-11.08L46.2-11.08 46.2-13.63Q46.2-19.28 49.2-22.29 52.2-25.3 57.92-25.3L57.92-25.3Q61.77-25.3 64.33-23.99 66.9-22.68 68.18-20.25 69.47-17.82 69.47-14.43L69.47-14.43 69.47-13.6Q69.47-12.65 69.38-11.66 69.3-10.68 69.15-9.83L69.15-9.83 62.25-9.83Q62.34-11.28 62.37-12.56 62.4-13.85 62.4-14.9L62.4-14.9Q62.4-16.43 61.92-17.46 61.45-18.5 60.46-19.05 59.47-19.6 57.92-19.6L57.92-19.6Q55.62-19.6 54.56-18.36 53.5-17.13 53.5-14.85L53.5-14.85 53.5-12.6 53.55-11.78 53.55-10.03Q53.55-9.08 53.86-8.22 54.17-7.38 54.96-6.74 55.75-6.1 57.13-5.74 58.52-5.38 60.67-5.38L60.67-5.38Q62.95-5.38 65.05-5.81 67.15-6.25 69.07-7L69.07-7 68.45-1.25Q66.75-0.38 64.42 0.13 62.09 0.63 59.3 0.63ZM67.59-14.55L67.59-9.83 50.25-9.83 50.25-14.55 67.59-14.55ZM81.09-13.8L81.09-13.8 78.99-18.45 80.79-18.45Q81.39-21.5 83.13-23.24 84.87-24.98 88.04-24.98L88.04-24.98Q88.59-24.98 89.06-24.9 89.52-24.83 89.94-24.73L89.94-24.73 90.32-17Q89.79-17.15 89.09-17.21 88.39-17.28 87.67-17.28L87.67-17.28Q85.22-17.28 83.54-16.36 81.87-15.45 81.09-13.8ZM81.24-16.63L81.24 0 73.59 0 73.59-24.58 80.79-24.58 80.47-16.73 81.24-16.63ZM103.24 0.55L103.24 0.55Q99.97 0.55 98.03-0.44 96.09-1.43 95.24-3.4 94.39-5.38 94.39-8.28L94.39-8.28 94.39-22 101.99-22 101.99-9.5Q101.99-7.7 102.8-6.86 103.62-6.03 105.84-6.03L105.84-6.03Q107.07-6.03 108.27-6.3 109.47-6.58 110.44-7L110.44-7 109.79-0.68Q108.52-0.13 106.85 0.21 105.19 0.55 103.24 0.55ZM110.22-24.48L109.54-18.48 91.09-18.48 91.09-24.48 110.22-24.48ZM102.04-31L101.77-23.93 94.49-23.93 94.47-30.28 102.04-31Z" fill="#ffffff" data-fill-palette-color="primary"></path></g></svg></g></svg></g></svg></g></svg></g><g transform="matrix(1,0,0,1,424.8255402510842,0)"><svg viewBox="0 0 171.5560100433691 171.5560100433691" height="171.5560100433691" width="171.5560100433691"><g data-palette-color="#007fff"><rect width="46.891976078520884" height="171.5560100433691" fill="#007fff" stroke="transparent" data-fill-palette-color="accent" x="0" fill-opacity="1"></rect><rect width="46.891976078520884" height="171.5560100433691" fill="#007fff" stroke="transparent" data-fill-palette-color="accent" x="57.18533668112303" fill-opacity="0.75"></rect><rect width="46.891976078520884" height="171.5560100433691" fill="#007fff" stroke="transparent" data-fill-palette-color="accent" x="114.37067336224607" fill-opacity="0.5"></rect></g></svg></g></svg></g><defs></defs></svg><rect width="395.52" height="113.77587562668843" fill="none" stroke="none" visibility="hidden"></rect></g></svg></g></svg>